# xmcd
#
# Track frame offsets: 
#        150
#        21962
#        42411
#        66257
#        82708
#        101598
#        124911
#        140796
#        157529
#        183787
#
# Disc length: 2698 seconds
#
# Revision: 2
# Processed by: cddbd v1.5.2PL0 Copyright (c) Steve Scherf et al.
# Submitted via: ExactAudioCopy v0.99pb5
#
DISCID=7a0a880a
DTITLE=George Thorogood - 10 Great Songs
DYEAR=2009
DGENRE=Rock/Blues
TTITLE0=Bad To The Bone
TTITLE1=I Drink Alone
TTITLE2=Who Do You Love (Live)
TTITLE3=Tail Dragger
TTITLE4=If You Don't Start Drinkin' (I'm Gonna Leave)
TTITLE5=Move It On Over (Live)
TTITLE6=Treat Her Right
TTITLE7=I'm A Steady Rollin' Man
TTITLE8=One Bourbon, One Scotch, One Beer (Live)
TTITLE9=Get A Haircut
EXTD=
EXTT0=
EXTT1=
EXTT2=
EXTT3=
EXTT4=
EXTT5=
EXTT6=
EXTT7=
EXTT8=
EXTT9=
PLAYORDER=
